<svg xmlns="http://www.w3.org/2000/svg" viewBox="0 0 800 500" fill="none">
  <rect width="800" height="500" fill="#0f0f1a"/>
  <rect x="40" y="40" width="320" height="420" rx="16" fill="#1a1a2e" stroke="#6366f1" stroke-width="2"/>
  <rect x="60" y="70" width="120" height="12" rx="6" fill="#6366f1" opacity="0.6"/>
  <rect x="60" y="100" width="280" height="60" rx="12" fill="#6366f1" opacity="0.15"/>
  <rect x="70" y="115" width="200" height="10" rx="5" fill="#a78bfa" opacity="0.5"/>
  <rect x="70" y="135" width="160" height="8" rx="4" fill="#8b8b9e" opacity="0.3"/>
  <rect x="60" y="180" width="200" height="50" rx="12" fill="#22d3ee" opacity="0.1"/>
  <rect x="70" y="195" width="180" height="10" rx="5" fill="#22d3ee" opacity="0.4"/>
  <rect x="70" y="212" width="140" height="8" rx="4" fill="#8b8b9e" opacity="0.3"/>
  <rect x="60" y="250" width="240" height="50" rx="12" fill="#6366f1" opacity="0.1"/>
  <rect x="70" y="265" width="220" height="10" rx="5" fill="#6366f1" opacity="0.4"/>
  <rect x="70" y="282" width="180" height="8" rx="4" fill="#8b8b9e" opacity="0.3"/>
  <circle cx="200" cy="400" r="28" fill="#6366f1" opacity="0.3"/>
  <rect x="60" y="360" width="280" height="40" rx="20" fill="#6366f1" opacity="0.2"/>
  <rect x="400" y="40" width="360" height="420" rx="16" fill="#1a1a2e" stroke="#22d3ee" stroke-width="2"/>
  <circle cx="480" cy="120" r="40" fill="#a78bfa" opacity="0.4"/>
  <rect x="540" y="100" width="180" height="14" rx="7" fill="#f0f0f5" opacity="0.6"/>
  <rect x="540" y="125" width="120" height="10" rx="5" fill="#8b8b9e" opacity="0.4"/>
  <rect x="420" y="180" width="320" height="80" rx="12" fill="#6366f1" opacity="0.12"/>
  <rect x="435" y="200" width="250" height="12" rx="6" fill="#a78bfa" opacity="0.5"/>
  <rect x="435" y="222" width="200" height="10" rx="5" fill="#8b8b9e" opacity="0.3"/>
  <rect x="435" y="240" width="180" height="10" rx="5" fill="#8b8b9e" opacity="0.2"/>
  <rect x="420" y="290" width="280" height="60" rx="12" fill="#22d3ee" opacity="0.1"/>
  <rect x="435" y="310" width="240" height="12" rx="6" fill="#22d3ee" opacity="0.4"/>
  <rect x="435" y="330" width="200" height="10" rx="5" fill="#8b8b9e" opacity="0.3"/>
  <text x="400" y="470" fill="#6366f1" font-family="system-ui" font-size="14" opacity="0.5">ChatVerse  AI Companion Platform</text>
</svg>
