<svg xmlns="http://www.w3.org/2000/svg" viewBox="0 0 800 500" fill="none">
  <rect width="800" height="500" fill="#1a0f0a"/>
  <rect x="280" y="20" width="240" height="460" rx="32" fill="#2d1810" stroke="#f97316" stroke-width="2"/>
  <rect x="300" y="50" width="200" height="30" rx="8" fill="#7c2d12" opacity="0.4"/>
  <rect x="310" y="100" width="180" height="120" rx="16" fill="#f97316" opacity="0.15"/>
  <text x="400" y="175" text-anchor="middle" fill="#f97316" font-family="system-ui" font-size="48" opacity="0.6">=%</text>
  <rect x="310" y="240" width="180" height="14" rx="7" fill="#f0f0f5" opacity="0.7"/>
  <rect x="310" y="265" width="140" height="10" rx="5" fill="#8b8b9e" opacity="0.4"/>
  <rect x="310" y="295" width="180" height="8" rx="4" fill="#f97316" opacity="0.3"/>
  <rect x="310" y="310" width="160" height="8" rx="4" fill="#f97316" opacity="0.2"/>
  <rect x="310" y="340" width="180" height="50" rx="12" fill="#7c2d12" opacity="0.3"/>
  <rect x="325" y="355" width="60" height="20" rx="10" fill="#f97316" opacity="0.4"/>
  <rect x="395" y="355" width="60" height="20" rx="10" fill="#22c55e" opacity="0.3"/>
  <rect x="310" y="410" width="180" height="40" rx="20" fill="#f97316" opacity="0.25"/>
  <text x="400" y="490" text-anchor="middle" fill="#f97316" font-family="system-ui" font-size="14" opacity="0.5">Daily Hustle Coach  Mobile AI Coach</text>
</svg>
