<svg xmlns="http://www.w3.org/2000/svg" viewBox="0 0 800 500" fill="none">
  <rect width="800" height="500" fill="#0a1628"/>
  <rect x="200" y="30" width="400" height="440" rx="24" fill="#0f2847" stroke="#22d3ee" stroke-width="2"/>
  <rect x="220" y="60" width="360" height="50" rx="12" fill="#155e75" opacity="0.3"/>
  <circle cx="250" cy="85" r="16" fill="#22d3ee" opacity="0.5"/>
  <rect x="280" y="75" width="120" height="12" rx="6" fill="#f0f0f5" opacity="0.7"/>
  <rect x="280" y="95" width="80" height="8" rx="4" fill="#8b8b9e" opacity="0.4"/>
  <rect x="220" y="130" width="360" height="200" rx="16" fill="#0c4a6e" opacity="0.4"/>
  <rect x="240" y="150" width="200" height="60" rx="16" fill="#22d3ee" opacity="0.15"/>
  <rect x="255" y="170" width="170" height="10" rx="5" fill="#22d3ee" opacity="0.5"/>
  <rect x="255" y="188" width="140" height="8" rx="4" fill="#8b8b9e" opacity="0.3"/>
  <rect x="300" y="230" width="220" height="60" rx="16" fill="#6366f1" opacity="0.15"/>
  <rect x="315" y="250" width="190" height="10" rx="5" fill="#a78bfa" opacity="0.5"/>
  <rect x="315" y="268" width="160" height="8" rx="4" fill="#8b8b9e" opacity="0.3"/>
  <rect x="240" y="350" width="320" height="50" rx="25" fill="#155e75" opacity="0.3"/>
  <rect x="260" y="365" width="200" height="20" rx="10" fill="#0a1628" opacity="0.5"/>
  <circle cx="520" cy="390" r="20" fill="#22d3ee" opacity="0.6"/>
  <text x="400" y="490" text-anchor="middle" fill="#22d3ee" font-family="system-ui" font-size="14" opacity="0.5">LexiBot  AI Character Platform</text>
</svg>
